<?xml version="1.0" encoding="UTF-8" standalone="no"?>
<!-- Created with Inkscape (http://www.inkscape.org/) -->

<svg
   width="200mm"
   height="130mm"
   viewBox="0 0 200 130"
   version="1.1"
   id="svg1"
   inkscape:version="1.3.2 (091e20e, 2023-11-25, custom)"
   sodipodi:docname="Leadly.svg"
   xmlns:inkscape="http://www.inkscape.org/namespaces/inkscape"
   xmlns:sodipodi="http://sodipodi.sourceforge.net/DTD/sodipodi-0.dtd"
   xmlns="http://www.w3.org/2000/svg"
   xmlns:svg="http://www.w3.org/2000/svg">
  <sodipodi:namedview
     id="namedview1"
     pagecolor="#ffffff"
     bordercolor="#000000"
     borderopacity="0.25"
     inkscape:showpageshadow="2"
     inkscape:pageopacity="0.0"
     inkscape:pagecheckerboard="0"
     inkscape:deskcolor="#d1d1d1"
     inkscape:document-units="mm"
     inkscape:zoom="0.90128751"
     inkscape:cx="380.01192"
     inkscape:cy="452.13097"
     inkscape:window-width="1920"
     inkscape:window-height="1017"
     inkscape:window-x="-8"
     inkscape:window-y="-8"
     inkscape:window-maximized="1"
     inkscape:current-layer="g145" />
  <defs
     id="defs1">
    <rect
       x="170.86668"
       y="426.05716"
       width="197.49525"
       height="229.67144"
       id="rect94" />
    <linearGradient
       id="swatch94"
       inkscape:swatch="solid">
      <stop
         style="stop-color:#00000d;stop-opacity:1;"
         offset="0"
         id="stop94" />
    </linearGradient>
    <inkscape:perspective
       sodipodi:type="inkscape:persp3d"
       inkscape:vp_x="-34.372121 : 148.5 : 1"
       inkscape:vp_y="0 : 1000 : 0"
       inkscape:vp_z="275.89517 : 148.5 : 1"
       inkscape:persp3d-origin="120.76152 : 99 : 1"
       id="perspective2" />
    <rect
       x="300.79699"
       y="401.97416"
       width="50.588585"
       height="106.64621"
       id="rect2" />
    <rect
       x="65.628435"
       y="285.75714"
       width="520.9257"
       height="164.07109"
       id="rect1" />
    <rect
       x="170.86668"
       y="426.05716"
       width="197.49525"
       height="229.67143"
       id="rect94-6" />
    <rect
       x="170.86668"
       y="426.05716"
       width="197.49525"
       height="229.67143"
       id="rect94-5" />
    <rect
       x="170.86668"
       y="426.05716"
       width="197.49525"
       height="229.67143"
       id="rect94-62" />
    <rect
       x="65.628433"
       y="285.75714"
       width="520.92572"
       height="164.07109"
       id="rect1-9" />
    <rect
       x="170.86668"
       y="426.05716"
       width="197.49525"
       height="229.67143"
       id="rect94-6-4" />
  </defs>
  <g
     inkscape:label="Camada 1"
     inkscape:groupmode="layer"
     id="layer1">
    <text
       xml:space="preserve"
       transform="scale(0.26458333)"
       id="text2"
       style="fill:#000000;font-size:74.66666667px;white-space:pre;shape-inside:url(#rect2)" />
    <rect
       style="fill:#00000d;fill-opacity:1;stroke-width:0.217237;stroke-dasharray:none"
       id="rect94-3"
       width="68.587715"
       height="50.49258"
       x="122.14441"
       y="68.77108"
       ry="10.603442" />
    <text
       xml:space="preserve"
       transform="matrix(0.2619042,0,0,0.2619042,81.228208,-45.111315)"
       id="text94"
       style="font-size:192px;white-space:pre;shape-inside:url(#rect94-62);fill:#ffffff;fill-opacity:1;stroke-width:1.00157;stroke-dasharray:none"><tspan
         x="170.86719"
         y="601.22406"
         id="tspan1">L</tspan></text>
    <text
       xml:space="preserve"
       transform="matrix(0.62490713,0,0,0.62490713,-2.2773345,-108.96744)"
       id="text1"
       style="font-size:74.6667px;white-space:pre;shape-inside:url(#rect1-9);fill:#000000"><tspan
         x="65.628906"
         y="353.87851"
         id="tspan2">ead</tspan></text>
    <text
       xml:space="preserve"
       transform="matrix(0.2619042,0,0,0.2619042,-36.553323,-45.482273)"
       id="text94-1"
       style="font-size:192px;white-space:pre;shape-inside:url(#rect94-6-4);fill:#00000d;fill-opacity:1;stroke-width:1.00157;stroke-dasharray:none"><tspan
         x="170.86719"
         y="601.22406"
         id="tspan3">L</tspan></text>
    <g
       id="g145"
       transform="matrix(1.1113571,0,0,1.0053352,-20.634081,-0.70041844)">
      <g
         id="g156"
         transform="matrix(0.97533332,0,0,0.97533332,3.6414604,2.7584599)">
        <path
           style="fill:#ffffff;fill-opacity:1;stroke-width:0.250704;stroke-dasharray:none"
           d="m 172.53585,79.477099 c -0.12461,-0.0078 -0.24228,0.01382 -0.35876,0.06673 -0.14518,0.06594 -0.28145,0.196458 -0.41336,0.2902 -0.003,0.0021 -0.0686,0.04287 -0.0686,0.04966 0,0.01313 0.0217,-0.01058 0.0328,-0.01553 0.0331,-0.01482 0.0694,-0.02532 0.10451,-0.03259 0.12032,-0.02495 0.24217,0.0051 0.36345,0.0016 0.40906,-0.01179 0.81834,-0.06625 1.22604,-0.100871 0.0759,-0.0064 0.25557,-0.05635 0.30104,0.03414"
           id="path150" />
        <g
           id="g155">
          <g
             id="g154">
            <g
               id="g142"
               style="fill:#ffffff"
               transform="matrix(0.68961901,0,0,0.68961901,93.05194,-29.019705)">
              <ellipse
                 style="fill:#ffffff;stroke-width:0.0506195"
                 id="path17"
                 cx="101.45013"
                 cy="170.86818"
                 rx="6.2828045"
                 ry="1.5048356"
                 transform="matrix(0.9980681,-0.06212943,0.0508732,0.99870512,0,0)" />
              <g
                 id="g140"
                 transform="translate(-0.33161738,-6.6201041)"
                 style="fill:#ffffff">
                <path
                   style="fill:#ffffff;fill-opacity:1;stroke-width:0.193841;stroke-dasharray:none"
                   d="m 104.2563,202.2407 c 0.0129,0.26042 -0.006,0.51708 0.0162,0.77783 0.0341,0.39949 0.15944,0.80504 0.24922,1.19664 0.21842,0.95274 0.51838,2.22197 1.2298,2.99164 0.40143,0.43429 0.91918,0.79739 1.40318,1.15391 1.49696,1.10269 3.2238,1.80364 4.98965,2.50015 0.0199,0.008 -0.0297,-0.0279 -0.0434,-0.0428 -0.0463,-0.0505 -0.0784,-0.10982 -0.11377,-0.16668 -0.12819,-0.20628 -0.22241,-0.42383 -0.30881,-0.64533 -0.2938,-0.75323 -0.57984,-1.5182 -0.56885,-2.32493 0.0135,-0.99114 0.58335,-1.82353 1.21897,-2.60699 0.15343,-0.18911 0.30183,-0.393 0.49301,-0.55559 0.19952,-0.16969 0.40109,-0.35004 0.61761,-0.50431 0.13104,-0.0934 0.61767,-0.24139 0.49301,-0.38891 -0.32257,-0.38169 -1.03427,-0.51651 -1.51153,-0.64961 -1.93067,-0.53845 -3.71046,-0.28483 -5.67228,-0.38036 -0.39394,-0.0192 -0.80981,-0.0421 -1.19188,-0.13249 -0.14712,-0.0348 -0.90138,-0.34604 -0.97518,-0.33336 -0.11413,0.0196 -0.21671,0.0741 -0.32506,0.11112 z"
                   id="path114" />
                <path
                   style="fill:#ffffff;fill-opacity:1;stroke-width:0.219367;stroke-dasharray:none"
                   d="m 101.26479,196.59982 c 0.76049,0.88676 1.6293,1.53787 2.9817,1.9928 0.94501,0.31789 2.08202,0.63435 3.10651,0.78686 0.5461,0.0813 1.10538,0.0357 1.65034,0.11973 1.24948,0.19264 2.52452,0.48387 3.8138,0.52172 0.45227,0.0133 0.88232,-0.10521 1.33136,-0.12829 0.70218,-0.0361 1.40473,-0.008 2.10799,-0.0513 0.6975,-0.043 3.44473,-0.70619 1.8861,-1.28293 -1.47995,-0.54761 -2.58177,-0.13684 -4.06343,-0.13684 -1.27933,0 -2.62621,-0.14119 -3.84154,-0.41054 -2.93768,-0.65108 -5.8476,-1.41121 -8.97283,-1.41121 z"
                   id="path119" />
                <path
                   style="fill:#ffffff;fill-opacity:1;stroke-width:0.242494;stroke-dasharray:none"
                   d="m 102.14292,198.40271 c 1.91404,0.89685 4.06015,1.18481 6.12982,1.714 2.44815,0.62596 5.21197,0.96984 7.75241,0.4912 0.5976,-0.11258 1.28174,-0.26871 1.8445,-0.48075 0.0323,-0.0121 0.096,-0.0844 0.13868,-0.0522 0.099,0.0746 -0.17034,0.17166 -0.24963,0.26128 -0.18582,0.21006 -0.29205,0.48137 -0.527,0.65843 -1.009,0.76039 -2.109,1.12858 -3.45322,1.2437 -1.87775,0.1608 -3.93193,-0.0554 -5.75537,-0.43895 -0.72573,-0.15262 -1.49547,-0.42228 -2.23281,-0.50166 -0.68009,-0.0732 -1.96567,-0.16447 -2.53791,-0.59573 -0.39176,-0.29522 -0.87858,-1.8256 -1.10947,-2.29926 z"
                   id="path120" />
                <path
                   style="fill:#ffffff;fill-opacity:1;stroke-width:0.253004;stroke-dasharray:none"
                   d="m 90.280765,177.31147 c 0.590469,0.22261 1.064587,0.64643 1.656693,0.86619 3.116486,1.15668 6.431359,1.43809 9.706252,1.95902 0.92471,0.14709 1.83668,0.34851 2.75791,0.50999 4.8919,0.85745 9.89665,0.17616 14.6666,-0.93094 2.68539,-0.62328 5.36506,-1.27576 7.98136,-2.12092 1.35242,-0.43689 2.65096,-0.97537 3.97605,-1.47331 1.42278,-0.53465 2.97574,-0.84207 4.1125,-1.86189 0.46966,-0.42134 0.87234,-0.86648 1.38382,-1.24664 0.0204,-0.0152 0.23673,-0.24306 0.30209,-0.21048 0.62911,0.31354 -0.24245,1.73364 -0.46776,2.04807 -0.3876,0.54091 -0.92602,0.98002 -1.41305,1.44093 -1.38127,1.30714 -3.02545,2.36958 -4.89212,3.0033 -1.8951,0.64337 -3.83057,1.15141 -5.78867,1.60283 -1.06749,0.24609 -2.13699,0.517 -3.22568,0.6719 -2.51425,0.35769 -5.0653,0.34749 -7.59155,0.58284 -3.96432,0.36931 -7.8901,0.86161 -11.86971,0.34809 -2.582632,-0.33325 -5.079719,-1.13597 -7.279694,-2.45282 -1.001146,-0.59927 -2.033693,-1.20363 -2.923572,-1.94283 -0.07579,-0.0629 -0.527482,-0.53781 -0.65293,-0.48572 -0.09527,0.0396 0.110248,0.16424 0.155921,0.25096"
                   id="path131" />
                <path
                   style="fill:#ffffff;fill-opacity:1;stroke-width:0.254783;stroke-dasharray:none"
                   d="m 95.256839,181.14104 c 0.449357,0.20874 0.843954,0.49813 1.298201,0.69958 0.989631,0.43888 2.131685,0.71236 3.180087,1.00165 3.071413,0.84753 5.981353,0.99465 9.167923,1.04937 1.38679,0.0237 2.79046,0.0703 4.17639,-0.008 1.11854,-0.0631 2.23916,-0.23696 3.35117,-0.35773 3.89572,-0.42316 7.77197,-0.77052 11.3819,-2.23388 0.76519,-0.31019 1.56174,-0.60285 2.28444,-0.98576 1.20769,-0.63988 2.34102,-1.38938 3.50212,-2.09078 0.0939,-0.0566 1.43944,-0.88215 1.44917,-0.87446 0.33264,0.26278 -0.8998,1.56766 -1.05668,1.72507 -0.73346,0.73599 -1.43441,1.54652 -2.23412,2.22593 -1.18601,1.00761 -2.69079,1.75039 -4.19652,2.32132 -2.53607,0.96161 -5.41564,1.14441 -8.13136,1.40709 -0.97839,0.0946 -1.9479,0.23894 -2.92851,0.318 -3.55291,0.28637 -7.83583,0.25998 -11.37184,-0.18285 -1.7937,-0.22464 -3.56066,-0.60155 -5.333701,-0.92216 -1.063404,-0.19231 -3.134263,-0.50804 -3.914729,-1.24016 -0.217726,-0.20423 -0.409208,-0.45772 -0.593751,-0.68368 -0.08713,-0.10668 -0.444886,-0.50473 -0.382416,-0.65982 0.07537,-0.1871 0.234817,-0.33919 0.352226,-0.50879 z"
                   id="path132" />
                <path
                   style="fill:#ffffff;fill-opacity:1;stroke-width:0.248101;stroke-dasharray:none"
                   d="m 97.576517,184.81749 c 2.292365,1.37847 5.083653,1.50115 7.766683,1.65548 1.03211,0.0593 2.06538,0.12483 3.09882,0.16245 2.61842,0.0953 5.23311,0.34674 7.85494,0.37906 2.7869,0.0344 5.48793,-0.56603 8.07068,-1.4466 1.02198,-0.34845 1.98777,-0.81386 3.00076,-1.1836 1.11315,-0.40629 2.067,-1.01742 3.08903,-1.55491 0.27932,-0.14689 0.55738,-0.29786 0.84335,-0.43321 0.15435,-0.073 0.32749,-0.15716 0.47071,-0.24754 0.0512,-0.0324 0.22,-0.0928 0.1569,-0.0928 -0.0143,0 -0.5609,0.79872 -0.7649,1.03661 -0.39087,0.45582 -0.90687,0.79814 -1.40232,1.16038 -1.01533,0.74235 -1.94511,1.50094 -3.17728,1.97265 -2.42808,0.92954 -5.00435,1.24697 -7.61958,1.49303 -2.84247,0.26743 -5.66814,0.50498 -8.53159,0.45641 -1.25621,-0.0213 -2.4972,-0.15235 -3.74605,-0.25528 -1.83035,-0.15086 -3.68767,-0.32995 -5.48178,-0.6885 -0.59455,-0.11881 -1.469358,-0.15029 -1.980898,-0.46415 -0.39883,-0.24471 -0.868521,-0.86484 -1.147346,-1.22227"
                   id="path133" />
                <path
                   style="fill:#ffffff;fill-opacity:1;stroke-width:0.251244;stroke-dasharray:none"
                   d="m 126.23945,188.11728 c -0.14414,0.0207 -0.29082,0.031 -0.43243,0.0619 -0.32315,0.0705 -0.60128,0.27146 -0.93525,0.34038 -2.43242,0.50201 -4.96859,0.65541 -7.46187,0.70396 -2.58513,0.0503 -5.12965,0.019 -7.70323,-0.22434 -2.12628,-0.2011 -4.22758,-0.60023 -6.24505,-1.21453 -0.71437,-0.21752 -1.38139,-0.54795 -2.09173,-0.75811 -0.53517,-0.15834 -1.05735,-0.27801 -1.568808,-0.50284 -0.0362,-0.016 -0.48409,-0.26749 -0.5531,-0.20113 -0.58509,0.5626 0.773028,1.29681 1.186658,1.49302 1.78977,0.84902 3.73525,1.20464 5.71206,1.60133 0.68156,0.13677 1.34986,0.31845 2.03139,0.45641 2.0975,0.4246 4.21527,0.89646 6.36572,1.07529 2.02372,0.1683 4.15292,0.0299 6.15454,-0.25528 1.57691,-0.22464 3.3092,-0.43728 4.58573,-1.35378 0.45651,-0.32775 0.60102,-0.82508 0.95537,-1.22227 z"
                   id="path134" />
                <path
                   style="fill:#ffffff;fill-opacity:1;stroke-width:0.248101;stroke-dasharray:none"
                   d="m 100.67218,190.47248 c 1.01058,0.54373 2.17559,0.51687 3.30476,0.68849 0.60477,0.0919 1.1973,0.23336 1.80438,0.31716 1.26095,0.17408 2.66237,0.17511 3.95199,0.26302 2.82654,0.1927 5.69313,0.21206 8.52177,0.0696 0.87258,-0.0439 1.82612,-0.0926 2.67715,-0.27075 0.31076,-0.065 0.62248,-0.13001 0.93161,-0.20114 0.12284,-0.0282 0.46705,-0.14409 0.37265,-0.0696 -0.40323,0.31809 -0.9626,0.56255 -1.42193,0.82001 -0.40397,0.22643 -0.75381,0.50531 -1.20619,0.66528 -0.87662,0.31 -1.81562,0.46485 -2.7458,0.58793 -3.01459,0.3989 -5.94279,0.36321 -8.93364,-0.11604 -1.68901,-0.27064 -3.2756,-0.81201 -4.90321,-1.27642 -0.41285,-0.11779 -0.88363,-0.24516 -1.26503,-0.43321 -0.0545,-0.0269 -0.44898,-0.26426 -0.49032,-0.23981 -0.0346,0.0204 0.0389,0.25392 0.0392,0.25529"
                   id="path135" />
                <path
                   style="fill:#ffffff;fill-opacity:1;stroke-width:0.221379;stroke-dasharray:none"
                   d="m 99.686582,194.67906 c 0.331788,0.0839 0.684338,0.12947 1.014968,0.21556 0.6027,0.15697 1.15986,0.38543 1.75534,0.55434 1.0763,0.30529 2.17162,0.59288 3.27045,0.85614 0.87967,0.21074 1.7965,0.30578 2.68695,0.4835 0.51202,0.10218 1.03012,0.17615 1.54451,0.271 0.44505,0.0821 0.88261,0.18775 1.33858,0.23713 0.99542,0.10779 2.01002,0.10469 3.01057,0.15398 0.55767,0.0275 1.10817,0.004 1.66709,0.0585 0.50002,0.0491 2.64929,0.27829 2.96644,-0.12011 0.025,-0.0313 -0.30449,-0.11422 -0.33832,-0.11702 -0.43512,-0.0361 -0.86872,-0.0686 -1.29935,-0.12934 -0.52651,-0.0743 -1.04583,-0.161 -1.57883,-0.21249 -0.59438,-0.0574 -1.21117,-0.0717 -1.79948,-0.15092 -0.43343,-0.0584 -0.85129,-0.17013 -1.26503,-0.27407 -1.06336,-0.26716 -2.052,-0.62834 -3.07431,-0.96084 -0.35175,-0.11442 -0.71119,-0.21858 -1.05909,-0.33876 -0.38325,-0.1324 -0.74092,-0.29154 -1.13755,-0.40652 -0.4273,-0.12386 -0.85648,-0.1923 -1.29935,-0.27716 -0.95229,-0.18248 -1.91245,-0.30771 -2.89289,-0.38804 -0.58866,-0.0482 -1.16988,-0.0346 -1.76025,-0.0493 -0.33871,-0.009 -1.30884,-0.078 -1.549418,0.11087 -0.0499,0.0392 -0.48197,0.29647 -0.46089,0.31412 0.0759,0.0636 0.17324,0.11291 0.25986,0.16938 z"
                   id="path139" />
                <path
                   style="fill:#ffffff;fill-opacity:1;stroke-width:0.248101;stroke-dasharray:none"
                   d="m 108.64397,194.12615 c 0.10171,0.0966 0.19609,0.19962 0.30511,0.28992 0.18748,0.15529 0.59555,0.17009 0.8321,0.22427 1.26613,0.28997 2.57071,0.2735 3.86927,0.2735 0.33914,0 0.6685,-0.0533 1.00546,-0.0766 0.31569,-0.0218 0.635,-0.006 0.94998,-0.0383 0.82527,-0.0837 1.65573,-0.21242 2.4755,-0.33368 0.45165,-0.0668 0.88995,-0.12461 1.33137,-0.24068 0.15155,-0.0399 0.29009,-0.0893 0.42992,-0.15316 0.0502,-0.023 0.20222,-0.0766 0.14561,-0.0766 -0.0161,0 -0.0402,0.10702 -0.0485,0.12581 -0.0378,0.0852 -0.0976,0.16748 -0.15949,0.24068 -0.25811,0.30541 -0.577,0.58944 -0.95692,0.77675 -1.9075,0.94047 -3.23716,0.98042 -5.32545,0.65095 -1.32143,-0.20849 -2.63286,-0.52785 -3.87621,-0.97368 -0.0528,-0.0189 -0.88278,-0.36301 -0.90144,-0.34462 -0.0426,0.0421 7.9e-4,0.17855 0.007,0.22975"
                   id="path140" />
              </g>
              <path
                 style="fill:#ffffff;fill-opacity:1;stroke-width:0.301595;stroke-dasharray:none"
                 d="m 85.673692,165.63194 c 0.328368,0.70377 1.046251,0.99204 1.694114,1.31759 0.417487,0.20977 0.811955,0.45866 1.23715,0.65377 0.625488,0.28701 1.288844,0.49819 1.939315,0.71914 1.679566,0.5705 3.425824,1.031 5.17708,1.32262 2.722685,0.45338 5.518869,0.31683 8.264379,0.31683 0.87892,0 1.77549,-0.0209 2.65264,0.0302 0.57425,0.0334 1.14354,0.12782 1.7164,0.176 1.16765,0.0982 2.33465,0.16568 3.50525,0.21122 1.12328,0.0436 2.23483,0.13691 3.36037,0.11066 3.25318,-0.0759 6.37121,-1.02065 9.54612,-1.61933 0.84543,-0.15941 1.69786,-0.27831 2.55231,-0.37718 0.91866,-0.10633 1.84746,-0.15019 2.75852,-0.32184 1.09,-0.20538 2.21296,-0.59419 3.19875,-1.10136 0.39208,-0.2017 1.348,-0.62118 1.62166,-0.95047 0.0333,-0.04 -0.0896,0.053 -0.13374,0.0805 -0.15072,0.0936 -0.29987,0.19069 -0.44582,0.29168 -0.42756,0.2958 -0.8636,0.57488 -1.29845,0.85995 -0.85865,0.56287 -1.76824,1.05902 -2.70836,1.47349 -0.60478,0.26664 -1.24431,0.44321 -1.87244,0.64371 -0.42832,0.13672 -0.85,0.27861 -1.29287,0.36209 -0.83665,0.15769 -1.68945,0.22529 -2.53004,0.36209 -1.47637,0.24024 -2.9349,0.51283 -4.38574,0.88006 -1.80829,0.45771 -3.68162,0.73208 -5.52259,1.02591 -1.8473,0.29485 -3.70987,0.64865 -5.58391,0.71412 -1.38748,0.0484 -2.77295,-0.006 -4.15726,-0.0855 -0.74554,-0.043 -1.48966,-0.0226 -2.23467,-0.0855 -1.72643,-0.14582 -3.39939,-0.38422 -5.104628,-0.67388 -1.743959,-0.29624 -3.498315,-0.5569 -5.210518,-1.01586 -1.487787,-0.3988 -2.919153,-0.9329 -4.235285,-1.735 -1.136112,-0.69238 -1.87456,-1.00944 -2.429718,-2.30829 -0.05548,-0.12982 -0.314018,-0.82762 -0.267493,-0.94545 0.04681,-0.11854 0.126315,-0.22127 0.189474,-0.33191 z"
                 id="path141" />
              <g
                 id="g151"
                 transform="matrix(1.013638,0,0,0.81986712,-1.6283598,29.999931)">
                <g
                   id="g152">
                  <path
                     style="fill:#ffffff;fill-opacity:1;stroke-width:0.36354;stroke-dasharray:none"
                     d="m 92.650139,148.60759 c 0.603512,-0.3751 1.241111,-0.43483 1.916084,-0.52352 0.405499,-0.0533 0.816967,-0.0937 1.225141,-0.0461 0.160995,0.0188 0.319486,0.0585 0.47822,0.0923 0.715053,0.15244 1.426195,0.40369 2.087221,0.74469 0.39506,0.2038 0.77603,0.46834 1.140372,0.73196 0.02783,0.0202 0.417789,0.32302 0.443035,0.32302 0.0035,0 -0.02893,-0.0287 -0.06078,-0.0446 -0.04909,-0.0244 -0.09945,-0.0475 -0.150344,-0.0668 -0.152465,-0.0579 -0.30787,-0.10793 -0.462226,-0.15912 -0.457082,-0.15158 -0.923133,-0.27418 -1.397877,-0.33415 -0.263329,-0.0333 -0.527038,-0.0352 -0.791707,-0.0382 -0.258171,-0.003 -0.516498,-0.0114 -0.774107,0.0127 -0.520054,0.0487 -1.036086,0.13659 -1.554618,0.2005 -0.316735,0.039 -0.634264,0.0923 -0.953243,0.0923 -0.08223,0 -0.164837,0.002 -0.24631,-0.0128 -0.02589,-0.005 -0.05143,-0.0245 -0.07677,-0.0271 -0.0074,-7.7e-4 0.0066,0.0319 0.008,0.0382"
                     id="path146"
                     transform="translate(1.2228733e-6)" />
                  <path
                     style="fill:#ffffff;fill-opacity:1;stroke-width:0.337205;stroke-dasharray:none"
                     d="m 93.23293,148.40485 c -1.321092,0.47746 -2.749117,0.27417 -4.107601,0.49565 -3.184129,0.51914 -6.529729,1.74557 -8.405201,4.37559 -0.658043,0.92279 -1.143116,2.19326 -1.022378,3.33011 0.146468,1.37908 1.113106,2.36089 2.099038,3.29136 0.929147,0.8769 1.929027,1.72416 3.012847,2.42401 0.873041,0.56375 1.828739,1.00205 2.750464,1.48694 2.583227,1.35893 5.317893,2.50149 8.169963,3.25265 1.014337,0.26715 2.055644,0.4363 3.076178,0.6815 2.35482,0.56582 4.70955,1.07202 7.13854,1.22362 3.21982,0.20096 6.42398,-0.0747 9.63567,-0.25556 2.06286,-0.11618 4.12716,-0.12113 6.18854,-0.28654 0.55103,-0.0443 1.09393,-0.20448 1.63762,-0.29429 1.37313,-0.22683 2.73756,-0.53583 4.08046,-0.89061 1.16548,-0.30791 2.30554,-0.62214 3.42903,-1.05324 3.54359,-1.35971 7.27018,-4.1041 8.10663,-7.81412 0.7756,-3.44013 -0.34702,-6.8659 -3.67332,-8.70472 -1.42502,-0.78777 -3.60702,-1.04723 -5.22045,-1.23136 -2.06869,-0.23609 -4.08234,-0.35148 -6.1614,-0.20909 -0.10111,0.008 -1.26666,0.12967 -1.26666,0.17036 0,0.0229 0.0483,0 0.0724,0 0.11811,0 0.22663,0.0111 0.34381,0.0233 0.26101,0.028 0.51809,0.0538 0.77809,0.0929 0.79847,0.12061 1.60413,0.2012 2.39761,0.3485 3.00482,0.55778 6.28259,1.88547 7.91663,4.515 0.6575,1.05806 1.49011,3.55743 1.14904,4.7783 -0.24281,0.86915 -0.80709,1.63655 -1.2938,2.39303 -0.5866,0.91171 -1.11168,1.81415 -2.03571,2.46272 -1.45181,1.01901 -3.98321,1.8622 -5.69093,2.50919 -1.18709,0.44974 -2.31725,0.99211 -3.5376,1.37077 -1.23744,0.38395 -2.59188,0.59943 -3.88141,0.7512 -1.89801,0.22338 -3.79477,0.12271 -5.69998,0.10072 -1.42339,-0.0165 -2.85234,-0.0244 -4.27046,-0.16263 -3.50741,-0.34203 -7.04702,-0.78143 -10.477089,-1.56437 -0.907609,-0.20717 -1.836303,-0.35206 -2.732371,-0.60406 -0.669101,-0.1882 -1.303613,-0.44652 -1.963324,-0.65828 -1.343066,-0.43111 -2.76227,-0.75701 -4.026173,-1.37851 -0.957534,-0.47084 -1.820019,-1.13699 -2.659987,-1.77348 -0.47346,-0.35875 -0.974033,-0.70255 -1.375234,-1.13843 -1.21389,-1.31879 -2.410357,-3.25248 -2.252849,-5.07258 0.07018,-0.81098 0.524238,-1.61614 0.995236,-2.27686 1.972073,-2.7665 4.009385,-3.15944 7.382824,-3.4153 0.08113,-0.007 3.07799,-0.14869 3.085226,-0.15488 6.91e-4,-6.5e-4 -0.198479,-0.0575 -0.515711,-0.13165 -0.06564,-0.0154 -0.995236,-0.2807 -0.995236,-0.37174 0,-0.0684 0.118463,0.0782 0.171904,0.12392"
                     id="path145" />
                  <path
                     style="fill:#ffffff;fill-opacity:1;stroke-width:0.36354;stroke-dasharray:none"
                     d="m 87.115874,149.36779 c 0.587555,-0.38721 1.234772,-0.45812 1.890492,-0.60785 0.693315,-0.1583 1.390651,-0.29766 2.08242,-0.46463 0.4734,-0.11426 0.941108,-0.27097 1.421866,-0.3453 0.136549,-0.0211 0.275398,-0.0272 0.412648,-0.0414 0.371243,-0.0382 0.749624,-0.082 1.122779,-0.0573 0.356432,0.0236 0.708156,0.0875 1.057204,0.16708 0.665151,0.15154 1.107734,0.22617 1.647383,0.74628"
                     id="path147" />
                </g>
              </g>
              <path
                 style="fill:#ffffff;fill-opacity:1;stroke-width:0.32066;stroke-dasharray:none"
                 d="m 115.17647,160.01908 c 0.17497,0.10054 0.38492,0.0867 0.57452,0.14356 0.35844,0.1074 0.66706,0.27885 1.04952,0.33615 0.26774,0.0401 0.54475,0.0317 0.81428,0.063 0.74087,0.086 1.4929,0.1771 2.19404,0.40969 0.95082,0.31541 1.5482,0.92507 1.66928,1.79979 0.034,0.24567 0.0259,0.51001 -0.0724,0.74583 -0.34473,0.82717 -1.30631,1.43776 -2.13071,1.88734 -0.70137,0.38249 -1.48296,0.62412 -2.27094,0.84037 -0.55851,0.15327 -1.10135,0.34873 -1.66928,0.47621 -0.71091,0.15958 -1.42197,0.22964 -2.14428,0.32564 -0.38218,0.0508 -0.75028,0.15333 -1.13094,0.2101 -0.53627,0.08 -1.08687,0.1372 -1.62857,0.18558 -1.31278,0.11724 -2.60943,0.10332 -3.92665,0.091 -0.79333,-0.008 -1.58749,0.0175 -2.37951,-0.035 -0.86787,-0.0576 -1.68955,-0.2621 -2.46094,-0.61277 -1.687515,-0.76713 -3.91389,-2.67708 -2.080945,-4.27889 0.573565,-0.50125 1.258385,-0.76403 1.999515,-1.02946 0.2858,-0.10235 0.56712,-0.21731 0.85499,-0.31514 0.75332,-0.25599 1.59107,-0.3995 2.38856,-0.51472 0.31382,-0.0454 0.64021,-0.10292 0.95905,-0.11205 0.0363,-0.002 0.0909,0.0203 0.10857,-0.007 0.001,-0.002 -0.16086,-0.0373 -0.29405,-0.063 -0.39729,-0.0769 -0.80009,-0.0758 -1.20332,-0.0385 -1.93228,0.17839 -4.401565,0.93946 -6.07093,1.80331 -0.64508,0.3338 -1.26173,0.82348 -1.74619,1.31658 -0.59748,0.60813 -1.21291,1.50889 -0.85951,2.34253 0.23617,0.55713 0.77717,0.88491 1.37523,1.124 0.7047,0.28172 1.41396,0.31196 2.175945,0.34665 0.53786,0.0245 1.069155,0.0494 1.605945,-0.004 0.72402,-0.0713 1.41102,-0.23399 2.14879,-0.18207 0.40571,0.0285 0.83369,0.0626 1.2169,0.18557 0.40959,0.13146 0.77497,0.34803 1.20786,0.42369 0.94092,0.16446 1.91351,0.0981 2.86356,0.0981 0.84333,0 1.68732,0.0451 2.5288,-0.028 0.70302,-0.0611 1.39201,-0.183 2.09903,-0.2206 1.32847,-0.0706 2.67228,-0.0552 3.99451,-0.19609 1.17714,-0.12538 2.3266,-0.35991 3.4788,-0.59526 0.4827,-0.0986 0.9608,-0.18782 1.43403,-0.31863 0.0377,-0.0104 0.32337,-0.0629 0.34834,-0.10156 0.011,-0.017 -0.18814,0.0267 -0.33929,0.035 -0.26907,0.0149 -0.60921,0.0615 -0.87309,0.0105 -0.009,-0.002 0.079,-0.0638 0.0859,-0.07 0.0769,-0.0694 0.1552,-0.12839 0.25786,-0.17857 1.31869,-0.64466 2.19856,-1.43483 2.19856,-2.82225 0,-1.36347 -1.00633,-2.03322 -2.36141,-2.57014 -0.96925,-0.38405 -1.96009,-0.65793 -3.0219,-0.77735 -0.6226,-0.07 -1.2556,-0.0558 -1.8819,-0.0665 -0.22768,-0.004 -0.45622,0.007 -0.68309,-0.0105 -0.13522,-0.0102 -0.26693,-0.0561 -0.40261,-0.0525 -0.18034,0.005 -0.355,0.0563 -0.53381,0.077 -0.26495,0.0307 -0.53888,0.0284 -0.80523,0.0525 -0.38134,0.0345 -0.76265,0.099 -1.13548,0.17508 -0.20529,0.0419 -0.48857,0.0843 -0.48857,0.10505 0,0.009 0.21689,3e-4 0.22619,0 0.37,-0.016 0.73945,-0.0366 1.10833,-0.0665 1.1616,-0.0943 2.28121,-0.0217 3.43808,0.0875 0.23667,0.0223 1.07034,0.0101 1.22595,0.11205"
                 id="path148" />
            </g>
            <path
               style="fill:#ffffff;fill-opacity:1;stroke-width:0.232971;stroke-dasharray:none"
               d="m 172.98589,79.655314 c 0.0703,0.03955 0.13743,0.08301 0.21083,0.118654 0.0446,0.02167 0.97546,-0.03477 1.10213,-0.03839 0.47427,-0.01354 0.9489,0.007 1.42319,0.007 0.48125,0 0.96698,-0.027 1.44714,0.01046 1.37947,0.10764 2.17158,0.665824 2.98053,1.535519 0.23679,0.254558 0.47155,0.502583 0.63253,0.795679 0.43302,0.788401 0.18039,1.297665 -0.48398,1.915906 -0.52703,0.490447 -1.10576,1.004032 -1.84007,1.291231 -0.48228,0.188628 -1.03093,0.210806 -1.55257,0.279185 -0.77861,0.10207 -1.53026,0.268633 -2.32405,0.289656 -1.17855,0.03121 -1.94155,0.01599 -3.04283,0.3769 -0.10917,0.03578 -0.87588,0.362448 -0.69961,0.516492 0.043,0.03757 0.0589,0.088 0.11501,0.118654 0.29306,0.160077 1.03549,0.05 1.37046,0.03839 0.23758,-0.0082 0.47634,0.0069 0.714,0 0.41603,-0.01212 0.83763,-0.06808 1.25067,-0.108184 0.69812,-0.06779 1.40246,-0.07902 2.09883,-0.157043 1.4091,-0.157879 2.77036,-0.426633 4.14497,-0.715412 0.43647,-0.09169 0.89139,-0.162269 1.31775,-0.282675 1.69675,-0.479149 3.42699,-1.373381 3.53161,-2.973321 0.0512,-0.781687 -0.27078,-1.482969 -1.01108,-2.010132 -1.06263,-0.75669 -2.5553,-0.931594 -3.90058,-1.116742 -0.99178,-0.136495 -1.98568,-0.225568 -2.98533,-0.310593 -0.48171,-0.04097 -0.95594,-0.09773 -1.44235,-0.08725 -0.7613,0.0164 -1.52199,0.132772 -2.28092,0.18147 -0.40787,0.02617 -1.21021,-0.0072 -1.5382,0.132613 -0.0606,0.02582 -0.0888,0.08752 -0.11978,0.132613"
               id="path149" />
          </g>
          <path
             style="fill:#ffffff;fill-opacity:1;stroke-width:0.266803;stroke-dasharray:none"
             d="m 158.08891,85.051137 c -0.45685,-0.285263 -1.1085,-0.995852 -1.23662,-1.483584 -0.0776,-0.295253 -8.1e-4,-0.652434 0.0353,-0.946637 0.0472,-0.385489 0.14189,-0.779597 0.40985,-1.080098 0.68689,-0.770297 2.47518,-1.386633 3.47668,-1.53014 0.99936,-0.143204 1.9787,-0.276233 2.99263,-0.276233 0.30594,0 0.60818,0.02654 0.91157,0.06207 0.0846,0.0099 0.16604,0.01987 0.25086,0.02482 0.0102,5.26e-4 0.11522,0.0081 0.10951,0.0031 -0.0949,-0.08339 -0.16997,-0.185178 -0.28266,-0.257608 -1.2908,-0.829683 -2.94839,-0.695927 -4.41297,-0.533843 -1.49357,0.165295 -2.80035,0.434419 -4.09146,1.225976 -0.27705,0.169848 -0.55022,0.338351 -0.7773,0.571085 -0.40175,0.411734 -0.78519,0.913082 -0.9999,1.443236 -0.10759,0.265719 -0.14936,0.553987 -0.15546,0.838007 -0.0174,0.810966 0.3843,1.341772 1.14476,1.685326"
             id="path151" />
        </g>
      </g>
    </g>
  </g>
</svg>
